<?xml version="1.0" encoding="UTF-8" standalone="no"?>
<!-- Created with Inkscape (http://www.inkscape.org/) -->

<svg
   xmlns:dc="http://purl.org/dc/elements/1.1/"
   xmlns:cc="http://creativecommons.org/ns#"
   xmlns:rdf="http://www.w3.org/1999/02/22-rdf-syntax-ns#"
   xmlns:svg="http://www.w3.org/2000/svg"
   xmlns="http://www.w3.org/2000/svg"
   xmlns:sodipodi="http://sodipodi.sourceforge.net/DTD/sodipodi-0.dtd"
   xmlns:inkscape="http://www.inkscape.org/namespaces/inkscape"
   width="210mm"
   height="297mm"
   viewBox="0 0 744.09448819 1052.3622047"
   id="svg2"
   version="1.1"
   inkscape:version="0.91 r13725"
   sodipodi:docname="Mouse Release.svg">
  <defs
     id="defs4" />
  <sodipodi:namedview
     id="base"
     pagecolor="#ffffff"
     bordercolor="#666666"
     borderopacity="1.0"
     inkscape:pageopacity="0.0"
     inkscape:pageshadow="2"
     inkscape:zoom="0.98994949"
     inkscape:cx="241.5716"
     inkscape:cy="795.72918"
     inkscape:document-units="px"
     inkscape:current-layer="layer1"
     showgrid="false"
     inkscape:window-width="1245"
     inkscape:window-height="755"
     inkscape:window-x="35"
     inkscape:window-y="1"
     inkscape:window-maximized="1" />
  <metadata
     id="metadata7">
    <rdf:RDF>
      <cc:Work
         rdf:about="">
        <dc:format>image/svg+xml</dc:format>
        <dc:type
           rdf:resource="http://purl.org/dc/dcmitype/StillImage" />
        <dc:title></dc:title>
      </cc:Work>
    </rdf:RDF>
  </metadata>
  <g
     inkscape:label="Layer 1"
     inkscape:groupmode="layer"
     id="layer1">
    <g
       id="g4152"
       style="stroke:#8f0000;stroke-opacity:1;fill:none;fill-opacity:1">
      <circle
         r="153.03812"
         cy="274.03967"
         cx="313.65237"
         id="path3336"
         style="fill:none;fill-rule:evenodd;stroke:#8f0000;stroke-width:2;stroke-linecap:butt;stroke-linejoin:miter;stroke-opacity:1;stroke-miterlimit:4;stroke-dasharray:none;fill-opacity:1" />
      <circle
         r="137.88582"
         cy="274.03967"
         cx="313.65237"
         id="path4146"
         style="fill:none;stroke:#8f0000;stroke-width:2;stroke-miterlimit:4;stroke-dasharray:none;stroke-opacity:1;fill-opacity:1" />
      <path
         inkscape:connector-curvature="0"
         id="path4148"
         d="m 298.73562,424.82351 c -26.05022,-2.74605 -52.16919,-12.63391 -73.61497,-27.86846 -10.96318,-7.78795 -26.97398,-23.91419 -34.91541,-35.16713 -7.395,-10.47864 -17.0403,-29.69668 -20.78531,-41.41427 -9.82902,-30.75356 -9.6654,-62.68561 0.48001,-93.67649 16.89267,-51.60153 59.56116,-89.52447 114.09807,-101.40821 12.40702,-2.70353 46.18948,-2.69564 59.09392,0.0138 53.68858,11.27252 97.06406,49.56217 114.03603,100.66516 5.54911,16.70851 6.79833,24.05466 7.379,43.39305 0.44766,14.90845 0.20612,19.57655 -1.54193,29.7995 -11.66257,68.20491 -66.85143,119.2113 -136.03554,125.72611 -12.40323,1.16797 -16.60514,1.15857 -28.19387,-0.063 z m 38.80047,-13.72371 c 48.77837,-7.85555 91.11619,-43.63345 107.39302,-90.75327 6.10149,-17.66326 7.23796,-24.95498 7.23796,-46.4399 0,-20.89919 -1.10716,-28.43666 -6.49421,-44.21254 -7.33134,-21.46965 -17.39111,-37.53007 -33.76193,-53.90088 -20.08871,-20.08871 -42.53623,-32.31072 -70.5684,-38.42238 -11.77928,-2.56815 -43.25368,-2.60736 -55.01275,-0.0685 -49.23452,10.62995 -87.74002,44.20184 -104.19486,90.84462 -7.2558,20.56724 -9.54813,48.13984 -5.77796,69.49829 7.54672,42.75304 35.02996,80.34776 72.91679,99.74396 28.44785,14.56391 56.19752,18.87452 88.26234,13.71062 z"
         style="fill:none;stroke:#8f0000;stroke-width:2.02030516;stroke-miterlimit:4;stroke-dasharray:none;stroke-opacity:1;fill-opacity:1" />
    </g>
    <path
       style="fill:#8f0000;fill-opacity:1;stroke:#8f0000;stroke-width:1.01;stroke-miterlimit:4;stroke-dasharray:none;stroke-opacity:1"
       d="m 288.70429,421.88546 c -20.56536,-3.73694 -42.65332,-12.69193 -59.73311,-24.21726 -10.07806,-6.80061 -27.35725,-23.50787 -35.41113,-34.23905 -10.82947,-14.42944 -20.81273,-35.28406 -25.20487,-52.65195 -3.79067,-14.98945 -4.89992,-26.08702 -4.24071,-42.42641 2.45517,-60.85508 40.05509,-112.79743 97.63296,-134.8749 18.75376,-7.19088 24.19678,-8.05001 51.03992,-8.05614 26.00664,-0.006 28.91473,0.3599 45.96194,5.78205 42.60387,13.55089 78.0088,46.50875 94.05781,87.55685 7.72085,19.74739 9.15879,27.238 9.71395,50.6023 0.57663,24.26801 -0.58784,33.16652 -6.75648,51.6312 -7.1645,21.44556 -18.08172,39.73176 -33.21433,55.63354 -17.33606,18.21724 -37.4083,31.21158 -60.35322,39.07145 -15.83568,5.42456 -27.4055,7.39326 -45.87413,7.80587 -13.41249,0.29965 -18.80618,-0.0163 -27.6186,-1.61755 z m 50.34703,-9.5954 c 26.33799,-4.63531 51.0737,-17.27454 70.95731,-36.25715 16.3601,-15.61876 27.0715,-31.3262 34.4851,-50.56978 6.56352,-17.037 8.23284,-25.29551 8.88991,-43.98035 0.93485,-26.58431 -1.36682,-40.59403 -10.24852,-62.38014 -17.3929,-42.66349 -60.56482,-76.7372 -106.10411,-83.74337 -15.8116,-2.43259 -44.29195,-1.38547 -57.45844,2.11255 -54.57701,14.49979 -95.0607,58.05239 -104.28792,112.19359 -2.33583,13.70556 -2.31091,39.45507 0.0489,50.50519 9.51306,44.54666 36.54031,80.09742 75.83452,99.75026 13.18624,6.59504 31.05903,12.07215 45.24023,13.86385 9.77798,1.23538 31.44634,0.47589 42.64304,-1.49465 z"
       id="path5412"
       inkscape:connector-curvature="0" />
    <path
       style="fill:#000000;fill-opacity:1;fill-rule:evenodd;stroke:#000000;stroke-width:1.27535343px;stroke-linecap:butt;stroke-linejoin:miter;stroke-opacity:1"
       d="m 244.59459,169.73721 0,143.00146 38.32077,-22.1245 28.47292,106.26236 99.71422,-57.57004 -73.34843,-73.34843 31.63974,-18.26722 z"
       id="path5438"
       inkscape:connector-curvature="0" />
    <rect
       style="fill:#8f0000;fill-opacity:1;stroke:#8f0000;stroke-width:1.03224862;stroke-miterlimit:4;stroke-dasharray:none;stroke-opacity:1"
       id="rect5440"
       width="301.4621"
       height="27.87492"
       x="-125.22064"
       y="398.40927"
       ry="0"
       transform="matrix(0.70710678,-0.70710678,0.70710678,0.70710678,0,0)" />
  </g>
</svg>
