<?xml version="1.0" encoding="UTF-8" standalone="no"?>
<!-- Created with Inkscape (http://www.inkscape.org/) -->

<svg
   xmlns:dc="http://purl.org/dc/elements/1.1/"
   xmlns:cc="http://creativecommons.org/ns#"
   xmlns:rdf="http://www.w3.org/1999/02/22-rdf-syntax-ns#"
   xmlns:svg="http://www.w3.org/2000/svg"
   xmlns="http://www.w3.org/2000/svg"
   xmlns:sodipodi="http://sodipodi.sourceforge.net/DTD/sodipodi-0.dtd"
   xmlns:inkscape="http://www.inkscape.org/namespaces/inkscape"
   width="210mm"
   height="297mm"
   viewBox="0 0 744.09448819 1052.3622047"
   id="svg2"
   version="1.1"
   inkscape:version="0.91 r13725"
   sodipodi:docname="Zoom Out.svg">
  <defs
     id="defs4" />
  <sodipodi:namedview
     id="base"
     pagecolor="#ffffff"
     bordercolor="#666666"
     borderopacity="1.0"
     inkscape:pageopacity="0.0"
     inkscape:pageshadow="2"
     inkscape:zoom="0.98994949"
     inkscape:cx="174.90153"
     inkscape:cy="795.72918"
     inkscape:document-units="px"
     inkscape:current-layer="layer1"
     showgrid="false"
     inkscape:window-width="1245"
     inkscape:window-height="755"
     inkscape:window-x="35"
     inkscape:window-y="1"
     inkscape:window-maximized="1" />
  <metadata
     id="metadata7">
    <rdf:RDF>
      <cc:Work
         rdf:about="">
        <dc:format>image/svg+xml</dc:format>
        <dc:type
           rdf:resource="http://purl.org/dc/dcmitype/StillImage" />
        <dc:title />
      </cc:Work>
    </rdf:RDF>
  </metadata>
  <g
     inkscape:label="Layer 1"
     inkscape:groupmode="layer"
     id="layer1">
    <g
       id="g4152">
      <circle
         r="153.03812"
         cy="274.03967"
         cx="313.65237"
         id="path3336"
         style="fill:none;fill-rule:evenodd;stroke:#000000;stroke-width:2;stroke-linecap:butt;stroke-linejoin:miter;stroke-opacity:1;stroke-miterlimit:4;stroke-dasharray:none" />
      <circle
         r="137.88582"
         cy="274.03967"
         cx="313.65237"
         id="path4146"
         style="fill:none;stroke:#000000;stroke-width:2;stroke-miterlimit:4;stroke-dasharray:none;stroke-opacity:1" />
      <path
         inkscape:connector-curvature="0"
         id="path4148"
         d="m 298.73562,424.82351 c -26.05022,-2.74605 -52.16919,-12.63391 -73.61497,-27.86846 -10.96318,-7.78795 -26.97398,-23.91419 -34.91541,-35.16713 -7.395,-10.47864 -17.0403,-29.69668 -20.78531,-41.41427 -9.82902,-30.75356 -9.6654,-62.68561 0.48001,-93.67649 16.89267,-51.60153 59.56116,-89.52447 114.09807,-101.40821 12.40702,-2.70353 46.18948,-2.69564 59.09392,0.0138 53.68858,11.27252 97.06406,49.56217 114.03603,100.66516 5.54911,16.70851 6.79833,24.05466 7.379,43.39305 0.44766,14.90845 0.20612,19.57655 -1.54193,29.7995 -11.66257,68.20491 -66.85143,119.2113 -136.03554,125.72611 -12.40323,1.16797 -16.60514,1.15857 -28.19387,-0.063 z m 38.80047,-13.72371 c 48.77837,-7.85555 91.11619,-43.63345 107.39302,-90.75327 6.10149,-17.66326 7.23796,-24.95498 7.23796,-46.4399 0,-20.89919 -1.10716,-28.43666 -6.49421,-44.21254 -7.33134,-21.46965 -17.39111,-37.53007 -33.76193,-53.90088 -20.08871,-20.08871 -42.53623,-32.31072 -70.5684,-38.42238 -11.77928,-2.56815 -43.25368,-2.60736 -55.01275,-0.0685 -49.23452,10.62995 -87.74002,44.20184 -104.19486,90.84462 -7.2558,20.56724 -9.54813,48.13984 -5.77796,69.49829 7.54672,42.75304 35.02996,80.34776 72.91679,99.74396 28.44785,14.56391 56.19752,18.87452 88.26234,13.71062 z"
         style="fill:#000000;stroke:#000000;stroke-width:2.02030516;stroke-miterlimit:4;stroke-dasharray:none;stroke-opacity:1;fill-opacity:1" />
    </g>
    <rect
       style="fill:#8f0000;fill-opacity:1;stroke:none;stroke-width:2;stroke-miterlimit:4;stroke-dasharray:none;stroke-opacity:1"
       id="rect4150"
       width="66.670067"
       height="241.42645"
       x="240.70464"
       y="-434.3656"
       ry="19.192898"
       transform="matrix(0,1,-1,0,0,0)" />
  </g>
</svg>
